<svg xmlns="http://www.w3.org/2000/svg" x="0px" y="0px" width="100" height="100" viewBox="0,0,256,256">
  <g fill="none" fill-rule="nonzero" stroke="none" stroke-width="none" stroke-linecap="none" stroke-linejoin="none" stroke-miterlimit="10" stroke-dasharray="" stroke-dashoffset="0" font-family="none" font-weight="none" font-size="none" text-anchor="none" style="mix-blend-mode: normal">
    <g transform="scale(5.33333,5.33333)">
      <path d="M38.1,22.65l-3.37,-1.5v-1.96l-3.73,-2.24l-0.72,1.25c-1.17,-1.19 -2.12,-2.6 -2.78,-4.19l-1.49,-3.58c-0.55,-1.33 -2.39,-1.33 -2.94,0l-1.49,3.58c-1.28,3.09 -3.68,5.56 -6.68,6.9l-3.91,1.74c-1.28,0.57 -1.28,2.44 0,3.01l4.04,1.79c1.58,0.7 2.98,1.73 4.16,2.98l-0.23,3.15l2.62,0.43c0,0 0.04,0.07 0.05,0.11l1.47,3.36c0.56,1.29 2.35,1.29 2.92,0l1.47,-3.36c1.31,-2.99 3.66,-5.37 6.59,-6.67l4.04,-1.79c1.28,-0.57 1.28,-2.44 0,-3.01z" fill="#ff424d" stroke="none" stroke-width="1" stroke-linecap="butt" stroke-linejoin="miter"/>
      <path d="M40.25,44.74l-0.41,0.94c-0.3,0.69 -1.25,0.69 -1.55,0l-0.41,-0.94c-0.73,-1.67 -2.04,-3 -3.68,-3.73l-1.26,-0.56c-0.68,-0.3 -0.68,-1.29 0,-1.6l1.19,-0.53c1.68,-0.75 3.02,-2.13 3.73,-3.85l0.42,-1.01c0.29,-0.71 1.27,-0.71 1.56,0l0.42,1.01c0.72,1.73 2.05,3.11 3.73,3.85l1.19,0.53c0.68,0.3 0.68,1.29 0,1.6l-1.26,0.56c-1.64,0.73 -2.95,2.06 -3.68,3.73z" fill="#ff424d" stroke="none" stroke-width="1" stroke-linecap="butt" stroke-linejoin="miter"/>
      <path d="M26.5,26.17c-1.23,1.2 -2.23,2.65 -2.94,4.26l-1.51,3.46c-0.58,1.33 -2.42,1.33 -3,0l-1.51,-3.46c-1.35,-3.08 -3.77,-5.54 -6.79,-6.88l-4.16,-1.85c-1.32,-0.59 -1.32,-2.51 0,-3.1l4.03,-1.79c1.41,-0.63 2.69,-1.5 3.79,-2.56" fill="none" stroke="#18193f" stroke-width="3" stroke-linecap="round" stroke-linejoin="round"/>
      <path d="M17.5,9.72l1.53,-3.69c0.57,-1.37 2.46,-1.37 3.03,0l1.53,3.69c1.32,3.19 3.79,5.73 6.89,7.11l4.03,1.79c1.32,0.59 1.32,2.51 0,3.1l-4.16,1.85" fill="none" stroke="#18193f" stroke-width="3" stroke-linecap="round" stroke-linejoin="round"/>
      <path d="M31.39,37.53l-1.21,-0.54c-0.65,-0.29 -0.65,-1.24 0,-1.53l1.14,-0.51c1.61,-0.72 2.89,-2.04 3.58,-3.7l0.4,-0.97c0.28,-0.68 1.22,-0.68 1.5,0l0.4,0.97c0.69,1.66 1.97,2.98 3.58,3.7l1.14,0.51c0.65,0.29 0.65,1.24 0,1.53l-1.21,0.54c-1.57,0.7 -2.83,1.97 -3.53,3.58l-0.39,0.9c-0.29,0.66 -1.2,0.66 -1.48,0l-0.39,-0.9" fill="none" stroke="#18193f" stroke-width="3" stroke-linecap="round" stroke-linejoin="round"/>
    </g>
  </g>
</svg>
