<svg width="196" height="187" viewBox="0 0 196 187" fill="none" xmlns="http://www.w3.org/2000/svg">
<circle cx="135" cy="127" r="60" fill="#FFEBBF"/>
<circle cx="40.6218" cy="40.6218" r="40.6218" fill="#F5F5F5"/>
<path d="M97 42C96 42 95 42.5 94 43L54.5 65C53 66 52 67.5 52 69.5V114.5C52 116.5 53 118 54.5 119L94 141C95 141.5 96 142 97 142C98 142 99 141.5 100 141L104.5 138.5C103 135.5 102.5 132 102 128.5V95L132 78V97C135.5 97 139 97.5 142 98.5V69.5C142 67.5 141 66 139.5 65L100 43C99 42.5 98 42 97 42ZM97 53L127 69.5L117 75L87.5 58L97 53ZM77.5 63.5L107 81L97 86.5L67 69.5L77.5 63.5ZM62 78L92 95V128.5L62 111.5V78ZM143.5 111L125.5 129L117.5 121L112 127L126 142L150 118L143.5 111Z" fill="#FF7371"/>
</svg>
