<svg width="81" height="81" viewBox="0 0 81 81" fill="none" xmlns="http://www.w3.org/2000/svg">
<circle cx="56.1188" cy="52.9987" r="24.7194" fill="#FFF8E5"/>
<circle cx="17.0803" cy="17.2563" r="16.5803" fill="#F5F5F5"/>
<path d="M19.8633 23.1289H33.7824C34.5942 23.1288 35.3981 23.2887 36.1481 23.5994C36.8981 23.91 37.5796 24.3655 38.1536 24.9396L44.5827 31.3687M26.0431 41.6684H19.8633M33.2529 29.3088L37.3728 33.4287C37.6434 33.6992 37.8579 34.0203 38.0044 34.3738C38.1508 34.7272 38.2261 35.106 38.2261 35.4886C38.2261 35.8712 38.1508 36.25 38.0044 36.6034C37.8579 36.9569 37.6434 37.278 37.3728 37.5485C37.1023 37.8191 36.7812 38.0337 36.4277 38.1801C36.0743 38.3265 35.6955 38.4018 35.3129 38.4018C34.9303 38.4018 34.5515 38.3265 34.1981 38.1801C33.8446 38.0337 33.5235 37.8191 33.2529 37.5485L30.163 34.4586C28.3915 36.2302 25.5838 36.43 23.5774 34.9262L22.9532 34.4586" stroke="#FF7371" stroke-width="3.29592" stroke-linecap="round" stroke-linejoin="round"/>
<path d="M26.043 36.5183V45.7881C26.043 49.6732 26.043 51.6136 27.2501 52.8208C28.4572 54.0279 30.3977 54.0279 34.2828 54.0279H52.8223C56.7074 54.0279 58.6478 54.0279 59.855 52.8208C61.0621 51.6136 61.0621 49.6732 61.0621 45.7881V39.6083C61.0621 35.7232 61.0621 33.7827 59.855 32.5756C58.6478 31.3685 56.7074 31.3685 52.8223 31.3685H35.3127" stroke="#FF7371" stroke-width="3.29592" stroke-linecap="round" stroke-linejoin="round"/>
<path d="M47.1581 42.6982C47.1581 43.6543 46.7783 44.5712 46.1022 45.2472C45.4262 45.9233 44.5092 46.3031 43.5532 46.3031C42.5971 46.3031 41.6801 45.9233 41.0041 45.2472C40.328 44.5712 39.9482 43.6543 39.9482 42.6982C39.9482 41.7421 40.328 40.8252 41.0041 40.1491C41.6801 39.4731 42.5971 39.0933 43.5532 39.0933C44.5092 39.0933 45.4262 39.4731 46.1022 40.1491C46.7783 40.8252 47.1581 41.7421 47.1581 42.6982Z" stroke="#FF7371" stroke-width="3.29592" stroke-linecap="round" stroke-linejoin="round"/>
</svg>
