<svg width="152" height="130" viewBox="0 0 152 130" fill="none" xmlns="http://www.w3.org/2000/svg">
<path d="M1.2957 109.159C0.285553 110.1 0.229709 111.682 1.17097 112.692L16.5097 129.153C17.4509 130.163 19.0329 130.219 20.043 129.278C21.0532 128.337 21.109 126.755 20.1677 125.745L6.53333 111.112L21.1656 97.478C22.1757 96.5368 22.2316 94.9548 21.2903 93.9447C20.3491 92.9345 18.7671 92.8787 17.757 93.82L1.2957 109.159ZM96.2154 76.4461L94.6551 74.4928L96.2154 76.4461ZM3 110.988C2.9118 113.486 2.91295 113.486 2.91428 113.486C2.91496 113.486 2.91648 113.486 2.91785 113.486C2.9206 113.486 2.92408 113.487 2.92828 113.487C2.93669 113.487 2.948 113.487 2.96221 113.488C2.99061 113.489 3.03055 113.49 3.08183 113.491C3.1844 113.493 3.33235 113.496 3.52415 113.498C3.90774 113.501 4.46678 113.502 5.18894 113.489C6.63315 113.464 8.73049 113.386 11.3821 113.178C16.6843 112.762 24.2098 111.824 33.1657 109.738C51.0752 105.568 74.7431 96.7977 97.7757 78.3994L96.2154 76.4461L94.6551 74.4928C72.3304 92.3255 49.3906 100.826 32.0317 104.869C23.3535 106.89 16.0796 107.794 10.9909 108.193C8.44718 108.393 6.45125 108.466 5.10104 108.49C4.42599 108.502 3.91254 108.501 3.57294 108.498C3.40314 108.496 3.27682 108.494 3.19552 108.492C3.15486 108.491 3.12547 108.49 3.10751 108.49C3.09854 108.49 3.09243 108.489 3.0892 108.489C3.08758 108.489 3.08669 108.489 3.08652 108.489C3.08644 108.489 3.08686 108.489 3.08682 108.489C3.08742 108.489 3.0882 108.489 3 110.988ZM96.2154 76.4461L97.7757 78.3994C115.882 63.9358 129.265 44.7758 138.1 29.3223C142.526 21.5811 145.83 14.7354 148.03 9.81905C149.13 7.36013 149.956 5.38177 150.508 4.01283C150.784 3.32831 150.991 2.79599 151.131 2.43198C151.201 2.24996 151.254 2.11001 151.29 2.01412C151.308 1.96618 151.322 1.92925 151.331 1.90359C151.336 1.89076 151.34 1.88075 151.342 1.87359C151.344 1.87 151.345 1.86713 151.346 1.86498C151.346 1.86391 151.346 1.86282 151.347 1.86228C151.347 1.86139 151.347 1.86066 149 1C146.653 0.139336 146.653 0.138969 146.653 0.138794C146.653 0.138969 146.653 0.138969 146.653 0.13932C146.653 0.14003 146.652 0.141457 146.651 0.143585C146.65 0.14785 146.647 0.154945 146.643 0.164848C146.636 0.184654 146.624 0.215675 146.609 0.25766C146.577 0.341621 146.529 0.469437 146.464 0.639091C146.333 0.978409 146.136 1.48505 145.87 2.14298C145.34 3.45896 144.539 5.37953 143.466 7.7767C141.32 12.5725 138.089 19.2676 133.759 26.8407C125.083 42.0159 112.074 60.5789 94.6551 74.4928L96.2154 76.4461Z" fill="#DBDBDB"/>
</svg>
