<svg width="196" height="187" viewBox="0 0 196 187" fill="none" xmlns="http://www.w3.org/2000/svg">
<circle cx="135" cy="127" r="60" fill="#FFEBBF"/>
<circle cx="40.6218" cy="40.6218" r="40.6218" fill="#F5F5F5"/>
<g clip-path="url(#clip0_765_545)">
<path d="M116.75 33.1172L158 53.7422V99.7383L150.5 95.9883V62.1211L120.5 77.1211V92.2383L113 95.9883V77.1211L83 62.1211V75.4219L75.5 71.6719V53.7422L116.75 33.1172ZM116.75 70.6172L127.121 65.4023L99.9922 49.875L87.6289 56.0859L116.75 70.6172ZM135.207 61.418L145.871 56.0859L116.75 41.4961L108.02 45.8906L135.207 61.418ZM105.5 99.7383L98 103.488V103.43L75.5 114.68V141.34L98 130.031V138.469L71.75 151.594L38 134.66V95.0508L71.75 78.1758L105.5 95.0508V99.7383ZM68 141.34V114.68L45.5 103.43V130.031L68 141.34ZM71.75 108.176L93.3711 97.3945L71.75 86.5547L50.1289 97.3945L71.75 108.176ZM105.5 108.117L131.75 94.9922L158 108.117V138.996L131.75 152.121L105.5 138.996V108.117ZM128 141.867V123.996L113 116.496V134.367L128 141.867ZM150.5 134.367V116.496L135.5 123.996V141.867L150.5 134.367ZM131.75 117.492L145.871 110.402L131.75 103.371L117.629 110.402L131.75 117.492Z" fill="#FF7371"/>
</g>
<defs>
<clipPath id="clip0_765_545">
<rect width="120" height="120" fill="white" transform="translate(38 33)"/>
</clipPath>
</defs>
</svg>
