<svg width="25" height="24" viewBox="0 0 25 24" fill="none" xmlns="http://www.w3.org/2000/svg">
<path d="M12.49 2.00012C6.97 2.00012 2.5 6.48012 2.5 12.0001C2.5 17.5201 6.97 22.0001 12.49 22.0001C18.02 22.0001 22.5 17.5201 22.5 12.0001C22.5 6.48012 18.02 2.00012 12.49 2.00012ZM12.5 20.0001C8.08 20.0001 4.5 16.4201 4.5 12.0001C4.5 7.58012 8.08 4.00012 12.5 4.00012C16.92 4.00012 20.5 7.58012 20.5 12.0001C20.5 16.4201 16.92 20.0001 12.5 20.0001ZM13 7.00012H11.5V13.0001L16.75 16.1501L17.5 14.9201L13 12.2501V7.00012Z" fill="black"/>
</svg>
