<svg width="110" height="120" viewBox="0 0 110 120" fill="none" xmlns="http://www.w3.org/2000/svg">
  <g clip-path="url(#clip0_329_4903)">
    <path d="M51.7867 118.425C49.2459 118.425 47.0041 117.5 45.0611 115.65L39.4565 110.025C37.5634 108.125 36.6169 105.85 36.6169 103.2C36.6169 100.5 37.5634 98.2499 39.4565 96.4499L61.3519 74.3999H8.74321C6.15263 74.3999 4.04778 73.4624 2.42867 71.5874C0.809563 69.7124 7.62939e-06 67.4499 7.62939e-06 64.7999V55.1999C7.62939e-06 52.5499 0.809563 50.2874 2.42867 48.4124C4.04778 46.5374 6.15263 45.5999 8.74321 45.5999L61.3519 45.5999L39.4565 23.5499C37.5634 21.75 36.6169 19.5 36.6169 16.8C36.6169 14.1 37.5634 11.85 39.4565 10.05L45.0611 4.42495C46.9543 2.52495 49.1961 1.57495 51.7867 1.57495C54.4271 1.57495 56.6938 2.52495 58.587 4.42495L107.235 53.2499C109.078 54.9999 110 57.2499 110 59.9999C110 62.6999 109.078 64.9749 107.235 66.8249L58.587 115.65C56.644 117.5 54.3773 118.425 51.7867 118.425Z" fill="white" fill-opacity="0.4"/>
  </g>
  <defs>
    <clipPath id="clip0_329_4903">
      <rect width="120" height="110" fill="white" transform="matrix(0 1 -1 0 110 0)"/>
    </clipPath>
  </defs>
</svg>
