<svg width="25" height="24" viewBox="0 0 25 24" fill="none" xmlns="http://www.w3.org/2000/svg">
<path d="M20.5 6.50012H18.32C18.43 6.19012 18.5 5.85012 18.5 5.50012C18.5 3.84012 17.16 2.50012 15.5 2.50012C14.45 2.50012 13.54 3.04012 13 3.85012L12.5 4.52012L12 3.84012C11.46 3.04012 10.55 2.50012 9.5 2.50012C7.84 2.50012 6.5 3.84012 6.5 5.50012C6.5 5.85012 6.57 6.19012 6.68 6.50012H4.5C3.39 6.50012 2.51 7.39012 2.51 8.50012L2.5 19.5001C2.5 20.6101 3.39 21.5001 4.5 21.5001H20.5C21.61 21.5001 22.5 20.6101 22.5 19.5001V8.50012C22.5 7.39012 21.61 6.50012 20.5 6.50012ZM15.5 4.50012C16.05 4.50012 16.5 4.95012 16.5 5.50012C16.5 6.05012 16.05 6.50012 15.5 6.50012C14.95 6.50012 14.5 6.05012 14.5 5.50012C14.5 4.95012 14.95 4.50012 15.5 4.50012ZM9.5 4.50012C10.05 4.50012 10.5 4.95012 10.5 5.50012C10.5 6.05012 10.05 6.50012 9.5 6.50012C8.95 6.50012 8.5 6.05012 8.5 5.50012C8.5 4.95012 8.95 4.50012 9.5 4.50012ZM20.5 19.5001H4.5V17.5001H20.5V19.5001ZM20.5 14.5001H4.5V8.50012H9.58L7.5 11.3301L9.12 12.5001L12.5 7.90012L15.88 12.5001L17.5 11.3301L15.42 8.50012H20.5V14.5001Z" fill="black"/>
</svg>
