<svg width="25" height="24" viewBox="0 0 25 24" fill="none" xmlns="http://www.w3.org/2000/svg">
<mask id="mask0_310_5576" style="mask-type:alpha" maskUnits="userSpaceOnUse" x="0" y="0" width="25" height="25">
<rect x="0.5" y="0.00012207" width="24" height="24" fill="#D9D9D9"/>
</mask>
<g mask="url(#mask0_310_5576)">
<path d="M12.45 18.0001C12.8 18.0001 13.0958 17.8793 13.3375 17.6376C13.5792 17.396 13.7 17.1001 13.7 16.7501C13.7 16.4001 13.5792 16.1043 13.3375 15.8626C13.0958 15.621 12.8 15.5001 12.45 15.5001C12.1 15.5001 11.8042 15.621 11.5625 15.8626C11.3208 16.1043 11.2 16.4001 11.2 16.7501C11.2 17.1001 11.3208 17.396 11.5625 17.6376C11.8042 17.8793 12.1 18.0001 12.45 18.0001ZM11.55 14.1501H13.4C13.4 13.6001 13.4625 13.1668 13.5875 12.8501C13.7125 12.5335 14.0667 12.1001 14.65 11.5501C15.0833 11.1168 15.425 10.7043 15.675 10.3126C15.925 9.92096 16.05 9.45012 16.05 8.90012C16.05 7.96679 15.7083 7.25012 15.025 6.75012C14.3417 6.25012 13.5333 6.00012 12.6 6.00012C11.65 6.00012 10.8792 6.25012 10.2875 6.75012C9.69583 7.25012 9.28333 7.85012 9.05 8.55012L10.7 9.20012C10.7833 8.90012 10.9708 8.57512 11.2625 8.22512C11.5542 7.87512 12 7.70012 12.6 7.70012C13.1333 7.70012 13.5333 7.84596 13.8 8.13762C14.0667 8.42929 14.2 8.75012 14.2 9.10012C14.2 9.43346 14.1 9.74596 13.9 10.0376C13.7 10.3293 13.45 10.6001 13.15 10.8501C12.4167 11.5001 11.9667 11.9918 11.8 12.3251C11.6333 12.6585 11.55 13.2668 11.55 14.1501ZM12.5 22.0001C11.1167 22.0001 9.81667 21.7376 8.6 21.2126C7.38333 20.6876 6.325 19.9751 5.425 19.0751C4.525 18.1751 3.8125 17.1168 3.2875 15.9001C2.7625 14.6835 2.5 13.3835 2.5 12.0001C2.5 10.6168 2.7625 9.31679 3.2875 8.10012C3.8125 6.88346 4.525 5.82512 5.425 4.92512C6.325 4.02512 7.38333 3.31262 8.6 2.78762C9.81667 2.26262 11.1167 2.00012 12.5 2.00012C13.8833 2.00012 15.1833 2.26262 16.4 2.78762C17.6167 3.31262 18.675 4.02512 19.575 4.92512C20.475 5.82512 21.1875 6.88346 21.7125 8.10012C22.2375 9.31679 22.5 10.6168 22.5 12.0001C22.5 13.3835 22.2375 14.6835 21.7125 15.9001C21.1875 17.1168 20.475 18.1751 19.575 19.0751C18.675 19.9751 17.6167 20.6876 16.4 21.2126C15.1833 21.7376 13.8833 22.0001 12.5 22.0001ZM12.5 20.0001C14.7333 20.0001 16.625 19.2251 18.175 17.6751C19.725 16.1251 20.5 14.2335 20.5 12.0001C20.5 9.76679 19.725 7.87512 18.175 6.32512C16.625 4.77512 14.7333 4.00012 12.5 4.00012C10.2667 4.00012 8.375 4.77512 6.825 6.32512C5.275 7.87512 4.5 9.76679 4.5 12.0001C4.5 14.2335 5.275 16.1251 6.825 17.6751C8.375 19.2251 10.2667 20.0001 12.5 20.0001Z" fill="#1C1B1F"/>
</g>
</svg>
