<svg width="25" height="24" viewBox="0 0 25 24" fill="none" xmlns="http://www.w3.org/2000/svg">
<path d="M11.2998 12.0003L15.1998 15.9003C15.3831 16.0836 15.4748 16.317 15.4748 16.6003C15.4748 16.8836 15.3831 17.117 15.1998 17.3003C15.0165 17.4836 14.7831 17.5753 14.4998 17.5753C14.2165 17.5753 13.9831 17.4836 13.7998 17.3003L9.1998 12.7003C9.0998 12.6003 9.02897 12.492 8.9873 12.3753C8.94564 12.2586 8.9248 12.1336 8.9248 12.0003C8.9248 11.867 8.94564 11.742 8.9873 11.6253C9.02897 11.5086 9.0998 11.4003 9.1998 11.3003L13.7998 6.70029C13.9831 6.51696 14.2165 6.42529 14.4998 6.42529C14.7831 6.42529 15.0165 6.51696 15.1998 6.70029C15.3831 6.88363 15.4748 7.11696 15.4748 7.40029C15.4748 7.68363 15.3831 7.91696 15.1998 8.10029L11.2998 12.0003Z" fill="#5F6368"/>
</svg>
