<svg width="25" height="24" viewBox="0 0 25 24" fill="none" xmlns="http://www.w3.org/2000/svg">
<mask id="mask0_48_896" style="mask-type:alpha" maskUnits="userSpaceOnUse" x="0" y="0" width="25" height="25">
<rect x="0.5" y="0.00012207" width="24" height="24" fill="#D9D9D9"/>
</mask>
<g mask="url(#mask0_48_896)">
<path d="M12.5 22.0001C11.1333 22.0001 9.84167 21.7376 8.625 21.2126C7.40833 20.6876 6.34583 19.971 5.4375 19.0626C4.52917 18.1543 3.8125 17.0918 3.2875 15.8751C2.7625 14.6585 2.5 13.3668 2.5 12.0001C2.5 10.6168 2.7625 9.32096 3.2875 8.11262C3.8125 6.90429 4.52917 5.84596 5.4375 4.93762C6.34583 4.02929 7.40833 3.31262 8.625 2.78762C9.84167 2.26262 11.1333 2.00012 12.5 2.00012C13.8833 2.00012 15.1792 2.26262 16.3875 2.78762C17.5958 3.31262 18.6542 4.02929 19.5625 4.93762C20.4708 5.84596 21.1875 6.90429 21.7125 8.11262C22.2375 9.32096 22.5 10.6168 22.5 12.0001C22.5 13.3668 22.2375 14.6585 21.7125 15.8751C21.1875 17.0918 20.4708 18.1543 19.5625 19.0626C18.6542 19.971 17.5958 20.6876 16.3875 21.2126C15.1792 21.7376 13.8833 22.0001 12.5 22.0001ZM12.5 19.9501C12.9333 19.3501 13.3083 18.7251 13.625 18.0751C13.9417 17.4251 14.2 16.7335 14.4 16.0001H10.6C10.8 16.7335 11.0583 17.4251 11.375 18.0751C11.6917 18.7251 12.0667 19.3501 12.5 19.9501ZM9.9 19.5501C9.6 19.0001 9.3375 18.4293 9.1125 17.8376C8.8875 17.246 8.7 16.6335 8.55 16.0001H5.6C6.08333 16.8335 6.6875 17.5585 7.4125 18.1751C8.1375 18.7918 8.96667 19.2501 9.9 19.5501ZM15.1 19.5501C16.0333 19.2501 16.8625 18.7918 17.5875 18.1751C18.3125 17.5585 18.9167 16.8335 19.4 16.0001H16.45C16.3 16.6335 16.1125 17.246 15.8875 17.8376C15.6625 18.4293 15.4 19.0001 15.1 19.5501ZM4.75 14.0001H8.15C8.1 13.6668 8.0625 13.3376 8.0375 13.0126C8.0125 12.6876 8 12.3501 8 12.0001C8 11.6501 8.0125 11.3126 8.0375 10.9876C8.0625 10.6626 8.1 10.3335 8.15 10.0001H4.75C4.66667 10.3335 4.60417 10.6626 4.5625 10.9876C4.52083 11.3126 4.5 11.6501 4.5 12.0001C4.5 12.3501 4.52083 12.6876 4.5625 13.0126C4.60417 13.3376 4.66667 13.6668 4.75 14.0001ZM10.15 14.0001H14.85C14.9 13.6668 14.9375 13.3376 14.9625 13.0126C14.9875 12.6876 15 12.3501 15 12.0001C15 11.6501 14.9875 11.3126 14.9625 10.9876C14.9375 10.6626 14.9 10.3335 14.85 10.0001H10.15C10.1 10.3335 10.0625 10.6626 10.0375 10.9876C10.0125 11.3126 10 11.6501 10 12.0001C10 12.3501 10.0125 12.6876 10.0375 13.0126C10.0625 13.3376 10.1 13.6668 10.15 14.0001ZM16.85 14.0001H20.25C20.3333 13.6668 20.3958 13.3376 20.4375 13.0126C20.4792 12.6876 20.5 12.3501 20.5 12.0001C20.5 11.6501 20.4792 11.3126 20.4375 10.9876C20.3958 10.6626 20.3333 10.3335 20.25 10.0001H16.85C16.9 10.3335 16.9375 10.6626 16.9625 10.9876C16.9875 11.3126 17 11.6501 17 12.0001C17 12.3501 16.9875 12.6876 16.9625 13.0126C16.9375 13.3376 16.9 13.6668 16.85 14.0001ZM16.45 8.00012H19.4C18.9167 7.16679 18.3125 6.44179 17.5875 5.82512C16.8625 5.20846 16.0333 4.75012 15.1 4.45012C15.4 5.00012 15.6625 5.57096 15.8875 6.16262C16.1125 6.75429 16.3 7.36679 16.45 8.00012ZM10.6 8.00012H14.4C14.2 7.26679 13.9417 6.57512 13.625 5.92512C13.3083 5.27512 12.9333 4.65012 12.5 4.05012C12.0667 4.65012 11.6917 5.27512 11.375 5.92512C11.0583 6.57512 10.8 7.26679 10.6 8.00012ZM5.6 8.00012H8.55C8.7 7.36679 8.8875 6.75429 9.1125 6.16262C9.3375 5.57096 9.6 5.00012 9.9 4.45012C8.96667 4.75012 8.1375 5.20846 7.4125 5.82512C6.6875 6.44179 6.08333 7.16679 5.6 8.00012Z" fill="#1C1B1F"/>
</g>
</svg>
