<svg width="20" height="20" viewBox="0 0 20 20" fill="none" xmlns="http://www.w3.org/2000/svg">
<path opacity="0.3" d="M10.0001 3.33325C7.47508 3.33325 5.41675 5.39158 5.41675 7.91658C5.41675 9.97492 6.65842 11.1583 7.37508 11.6666H12.6251C13.3417 11.1583 14.5834 9.97492 14.5834 7.91658C14.5834 5.39158 12.5251 3.33325 10.0001 3.33325Z" fill="white"/>
<path d="M9.99992 18.3333C10.9166 18.3333 11.6666 17.5833 11.6666 16.6666H8.33325C8.33325 17.5833 9.08325 18.3333 9.99992 18.3333Z" fill="#FFC449"/>
<path d="M13.3334 14.1666H6.66675V15.8333H13.3334V14.1666Z" fill="#FFC449"/>
<path d="M10 1.66663C6.55 1.66663 3.75 4.46663 3.75 7.91663C3.75 11.1 5.96667 12.8 6.89167 13.3333H13.1083C14.0333 12.8 16.25 11.1 16.25 7.91663C16.25 4.46663 13.45 1.66663 10 1.66663ZM12.625 11.6666H7.375C6.65833 11.1583 5.41667 9.97496 5.41667 7.91663C5.41667 5.39163 7.475 3.33329 10 3.33329C12.525 3.33329 14.5833 5.39163 14.5833 7.91663C14.5833 9.97496 13.3417 11.1583 12.625 11.6666Z" fill="#FFC449"/>
</svg>
