<svg width="25" height="24" viewBox="0 0 25 24" fill="none" xmlns="http://www.w3.org/2000/svg">

<path d="M12.5 22.0001C13.6 22.0001 14.5 21.1001 14.5 20.0001H10.5C10.5 21.1001 11.4 22.0001 12.5 22.0001Z" fill="#454545"/>
<path d="M16.5 17.0001H8.5V19.0001H16.5V17.0001Z" fill="#454545"/>
<path d="M12.5 2.00012C8.36 2.00012 5 5.36012 5 9.50012C5 13.3201 7.66 15.3601 8.77 16.0001H16.23C17.34 15.3601 20 13.3201 20 9.50012C20 5.36012 16.64 2.00012 12.5 2.00012ZM15.65 14.0001H9.35C8.49 13.3901 7 11.9701 7 9.50012C7 6.47012 9.47 4.00012 12.5 4.00012C15.53 4.00012 18 6.47012 18 9.50012C18 11.9701 16.51 13.3901 15.65 14.0001Z" fill="#454545"/>
</svg>
