<svg width="25" height="24" viewBox="0 0 25 24" fill="none" xmlns="http://www.w3.org/2000/svg">
<mask id="mask0_419_3399" style="mask-type:alpha" maskUnits="userSpaceOnUse" x="0" y="0" width="25" height="25">
<rect x="0.5" y="0.00012207" width="24" height="24" fill="#D9D9D9"/>
</mask>
<g mask="url(#mask0_419_3399)">
<path d="M4.5 20.0001C3.95 20.0001 3.47917 19.8043 3.0875 19.4126C2.69583 19.021 2.5 18.5501 2.5 18.0001V6.00012C2.5 5.45012 2.69583 4.97929 3.0875 4.58762C3.47917 4.19596 3.95 4.00012 4.5 4.00012H20.5C21.05 4.00012 21.5208 4.19596 21.9125 4.58762C22.3042 4.97929 22.5 5.45012 22.5 6.00012V18.0001C22.5 18.5501 22.3042 19.021 21.9125 19.4126C21.5208 19.8043 21.05 20.0001 20.5 20.0001H4.5ZM12.5 13.0001L4.5 8.00012V18.0001H20.5V8.00012L12.5 13.0001ZM12.5 11.0001L20.5 6.00012H4.5L12.5 11.0001ZM4.5 8.00012V6.00012V18.0001V8.00012Z" fill="#454545"/>
</g>
</svg>
