<svg width="25" height="24" viewBox="0 0 25 24" fill="none" xmlns="http://www.w3.org/2000/svg">
<mask id="mask0_48_1156" style="mask-type:alpha" maskUnits="userSpaceOnUse" x="0" y="0" width="25" height="25">
<rect x="0.5" y="0.00012207" width="24" height="24" fill="#D9D9D9"/>
</mask>
<g mask="url(#mask0_48_1156)">
<path d="M12.5 12.0001C11.4 12.0001 10.4583 11.6085 9.675 10.8251C8.89167 10.0418 8.5 9.10012 8.5 8.00012C8.5 6.90012 8.89167 5.95846 9.675 5.17512C10.4583 4.39179 11.4 4.00012 12.5 4.00012C13.6 4.00012 14.5417 4.39179 15.325 5.17512C16.1083 5.95846 16.5 6.90012 16.5 8.00012C16.5 9.10012 16.1083 10.0418 15.325 10.8251C14.5417 11.6085 13.6 12.0001 12.5 12.0001ZM4.5 20.0001V17.2001C4.5 16.6335 4.64583 16.1126 4.9375 15.6376C5.22917 15.1626 5.61667 14.8001 6.1 14.5501C7.13333 14.0335 8.18333 13.646 9.25 13.3876C10.3167 13.1293 11.4 13.0001 12.5 13.0001C13.6 13.0001 14.6833 13.1293 15.75 13.3876C16.8167 13.646 17.8667 14.0335 18.9 14.5501C19.3833 14.8001 19.7708 15.1626 20.0625 15.6376C20.3542 16.1126 20.5 16.6335 20.5 17.2001V20.0001H4.5ZM6.5 18.0001H18.5V17.2001C18.5 17.0168 18.4542 16.8501 18.3625 16.7001C18.2708 16.5501 18.15 16.4335 18 16.3501C17.1 15.9001 16.1917 15.5626 15.275 15.3376C14.3583 15.1126 13.4333 15.0001 12.5 15.0001C11.5667 15.0001 10.6417 15.1126 9.725 15.3376C8.80833 15.5626 7.9 15.9001 7 16.3501C6.85 16.4335 6.72917 16.5501 6.6375 16.7001C6.54583 16.8501 6.5 17.0168 6.5 17.2001V18.0001ZM12.5 10.0001C13.05 10.0001 13.5208 9.80429 13.9125 9.41262C14.3042 9.02096 14.5 8.55012 14.5 8.00012C14.5 7.45012 14.3042 6.97929 13.9125 6.58762C13.5208 6.19596 13.05 6.00012 12.5 6.00012C11.95 6.00012 11.4792 6.19596 11.0875 6.58762C10.6958 6.97929 10.5 7.45012 10.5 8.00012C10.5 8.55012 10.6958 9.02096 11.0875 9.41262C11.4792 9.80429 11.95 10.0001 12.5 10.0001Z" fill="#1C1B1F"/>
</g>
</svg>
