<svg width="20" height="20" viewBox="0 0 20 20" fill="none" xmlns="http://www.w3.org/2000/svg">
<mask id="mask0_998_952" style="mask-type:alpha" maskUnits="userSpaceOnUse" x="0" y="0" width="20" height="20">
<rect width="20" height="20" fill="#D9D9D9"/>
</mask>
<g mask="url(#mask0_998_952)">
<path d="M3.33341 14.1667V15.8334H16.6667V14.1667H3.33341ZM3.33341 5.00008H5.16675C5.0973 4.87508 5.05216 4.74314 5.03133 4.60425C5.0105 4.46536 5.00008 4.31953 5.00008 4.16675C5.00008 3.4723 5.24314 2.88203 5.72925 2.39591C6.21536 1.9098 6.80564 1.66675 7.50008 1.66675C7.91675 1.66675 8.30216 1.77439 8.65633 1.98966C9.0105 2.20494 9.31953 2.4723 9.58341 2.79175L10.0001 3.33341L10.4167 2.79175C10.6667 2.45841 10.9723 2.18758 11.3334 1.97925C11.6945 1.77091 12.0834 1.66675 12.5001 1.66675C13.1945 1.66675 13.7848 1.9098 14.2709 2.39591C14.757 2.88203 15.0001 3.4723 15.0001 4.16675C15.0001 4.31953 14.9897 4.46536 14.9688 4.60425C14.948 4.74314 14.9029 4.87508 14.8334 5.00008H16.6667C17.1251 5.00008 17.5174 5.16328 17.8438 5.48967C18.1702 5.81605 18.3334 6.20842 18.3334 6.66675V15.8334C18.3334 16.2917 18.1702 16.6841 17.8438 17.0105C17.5174 17.3369 17.1251 17.5001 16.6667 17.5001H3.33341C2.87508 17.5001 2.48272 17.3369 2.15633 17.0105C1.82994 16.6841 1.66675 16.2917 1.66675 15.8334V6.66675C1.66675 6.20842 1.82994 5.81605 2.15633 5.48967C2.48272 5.16328 2.87508 5.00008 3.33341 5.00008ZM3.33341 11.6667H16.6667V6.66675H12.4167L14.1667 9.04175L12.8334 10.0001L10.0001 6.16675L7.16675 10.0001L5.83341 9.04175L7.54175 6.66675H3.33341V11.6667ZM7.50008 5.00008C7.73619 5.00008 7.93411 4.92022 8.09383 4.7605C8.25355 4.60078 8.33341 4.40286 8.33341 4.16675C8.33341 3.93064 8.25355 3.73272 8.09383 3.573C7.93411 3.41328 7.73619 3.33341 7.50008 3.33341C7.26397 3.33341 7.06605 3.41328 6.90633 3.573C6.74661 3.73272 6.66675 3.93064 6.66675 4.16675C6.66675 4.40286 6.74661 4.60078 6.90633 4.7605C7.06605 4.92022 7.26397 5.00008 7.50008 5.00008ZM12.5001 5.00008C12.7362 5.00008 12.9341 4.92022 13.0938 4.7605C13.2536 4.60078 13.3334 4.40286 13.3334 4.16675C13.3334 3.93064 13.2536 3.73272 13.0938 3.573C12.9341 3.41328 12.7362 3.33341 12.5001 3.33341C12.264 3.33341 12.0661 3.41328 11.9063 3.573C11.7466 3.73272 11.6667 3.93064 11.6667 4.16675C11.6667 4.40286 11.7466 4.60078 11.9063 4.7605C12.0661 4.92022 12.264 5.00008 12.5001 5.00008Z" fill="#D33841"/>
</g>
</svg>
