<svg width="25" height="24" viewBox="0 0 25 24" fill="none" xmlns="http://www.w3.org/2000/svg">
<mask id="mask0_172_2084" style="mask-type:alpha" maskUnits="userSpaceOnUse" x="0" y="0" width="25" height="25">
<rect x="0.5" y="0.00012207" width="24" height="24" fill="#D9D9D9"/>
</mask>
<g mask="url(#mask0_172_2084)">
<path d="M20.1 21.0001L13.8 14.7001C13.3 15.1001 12.725 15.4168 12.075 15.6501C11.425 15.8835 10.7333 16.0001 10 16.0001C8.18333 16.0001 6.64583 15.371 5.3875 14.1126C4.12917 12.8543 3.5 11.3168 3.5 9.50012C3.5 7.68346 4.12917 6.14596 5.3875 4.88762C6.64583 3.62929 8.18333 3.00012 10 3.00012C11.8167 3.00012 13.3542 3.62929 14.6125 4.88762C15.8708 6.14596 16.5 7.68346 16.5 9.50012C16.5 10.2335 16.3833 10.9251 16.15 11.5751C15.9167 12.2251 15.6 12.8001 15.2 13.3001L21.5 19.6001L20.1 21.0001ZM10 14.0001C11.25 14.0001 12.3125 13.5626 13.1875 12.6876C14.0625 11.8126 14.5 10.7501 14.5 9.50012C14.5 8.25012 14.0625 7.18762 13.1875 6.31262C12.3125 5.43762 11.25 5.00012 10 5.00012C8.75 5.00012 7.6875 5.43762 6.8125 6.31262C5.9375 7.18762 5.5 8.25012 5.5 9.50012C5.5 10.7501 5.9375 11.8126 6.8125 12.6876C7.6875 13.5626 8.75 14.0001 10 14.0001Z" fill="#1C1B1F"/>
</g>
</svg>
