<svg width="25" height="24" viewBox="0 0 25 24" fill="none" xmlns="http://www.w3.org/2000/svg">
<path d="M10.1132 9.84495C9.77767 9.6222 8.66407 8.85247 8.66407 8.85247C9.60367 7.51473 10.8428 6.99375 12.5567 6.99375C13.7685 6.99375 14.7976 7.39841 15.5321 8.1669C16.2666 8.93538 16.6855 10.0343 16.7812 11.4388C17.1888 11.6096 17.5638 11.8093 17.906 12.0378C19.2843 12.9597 20.0424 14.3395 20.0424 15.9198C20.0424 19.2809 17.2758 22.2001 12.2671 22.2001C7.96683 22.2001 3.5 19.7091 3.5 12.2927C3.5 4.91722 7.82763 2.40015 12.2547 2.40015C14.3004 2.40015 19.0979 2.70086 20.9 8.6322L19.2097 9.06903C17.8127 4.84297 14.8883 4.16977 12.2075 4.16977C7.77667 4.16977 5.26983 6.85638 5.26983 12.5724C5.26983 17.6994 8.07123 20.4219 12.2671 20.4219C15.7185 20.4219 18.2912 18.6361 18.2912 16.0213C18.2912 14.2418 16.7899 13.3891 16.7128 13.3891C16.4195 14.9162 15.634 17.4853 12.1838 17.4853C10.1729 17.4853 8.43911 16.1017 8.43911 14.29C8.43911 11.7037 10.9049 10.7669 12.8513 10.7669C13.5796 10.7669 14.4595 10.8164 14.9181 10.908C14.9181 10.1197 14.247 8.76956 12.5567 8.76956C11.0031 8.76956 10.6104 9.27075 10.112 9.84371L10.1132 9.84495ZM13.0899 12.5353C10.5545 12.5353 10.2263 13.6119 10.2263 14.2876C10.2263 15.3741 11.5226 15.733 12.2149 15.733C13.4826 15.733 14.7839 15.384 14.989 12.7345C14.3667 12.59 13.7288 12.523 13.0899 12.5353Z" fill="#454545"/>
</svg>
