<svg width="20" height="21" viewBox="0 0 20 21" fill="none" xmlns="http://www.w3.org/2000/svg">
<rect y="0.5" width="20" height="20" rx="10" fill="#DBDBDB"/>
<mask id="mask0_278_1555" style="mask-type:alpha" maskUnits="userSpaceOnUse" x="4" y="4" width="12" height="12">
<rect x="4" y="4" width="12" height="12" fill="#D9D9D9"/>
</mask>
<g mask="url(#mask0_278_1555)">
<path d="M10 10C9.45 10 8.97917 9.80417 8.5875 9.4125C8.19583 9.02083 8 8.55 8 8C8 7.45 8.19583 6.97917 8.5875 6.5875C8.97917 6.19583 9.45 6 10 6C10.55 6 11.0208 6.19583 11.4125 6.5875C11.8042 6.97917 12 7.45 12 8C12 8.55 11.8042 9.02083 11.4125 9.4125C11.0208 9.80417 10.55 10 10 10ZM6 14V12.6C6 12.3167 6.07292 12.0563 6.21875 11.8187C6.36458 11.5812 6.55833 11.4 6.8 11.275C7.31667 11.0167 7.84167 10.8229 8.375 10.6937C8.90833 10.5646 9.45 10.5 10 10.5C10.55 10.5 11.0917 10.5646 11.625 10.6937C12.1583 10.8229 12.6833 11.0167 13.2 11.275C13.4417 11.4 13.6354 11.5812 13.7812 11.8187C13.9271 12.0563 14 12.3167 14 12.6V14H6ZM7 13H13V12.6C13 12.5083 12.9771 12.425 12.9313 12.35C12.8854 12.275 12.825 12.2167 12.75 12.175C12.3 11.95 11.8458 11.7813 11.3875 11.6688C10.9292 11.5563 10.4667 11.5 10 11.5C9.53333 11.5 9.07083 11.5563 8.6125 11.6688C8.15417 11.7813 7.7 11.95 7.25 12.175C7.175 12.2167 7.11458 12.275 7.06875 12.35C7.02292 12.425 7 12.5083 7 12.6V13ZM10 9C10.275 9 10.5104 8.90208 10.7063 8.70625C10.9021 8.51042 11 8.275 11 8C11 7.725 10.9021 7.48958 10.7063 7.29375C10.5104 7.09792 10.275 7 10 7C9.725 7 9.48958 7.09792 9.29375 7.29375C9.09792 7.48958 9 7.725 9 8C9 8.275 9.09792 8.51042 9.29375 8.70625C9.48958 8.90208 9.725 9 10 9Z" fill="white"/>
</g>
</svg>
