<svg width="25" height="24" viewBox="0 0 25 24" fill="none" xmlns="http://www.w3.org/2000/svg">
<mask id="mask0_310_5559" style="mask-type:alpha" maskUnits="userSpaceOnUse" x="0" y="0" width="25" height="25">
<rect x="0.5" y="0.00012207" width="24" height="24" fill="#D9D9D9"/>
</mask>
<g mask="url(#mask0_310_5559)">
<path d="M11.5252 21.0001V18.8501C10.6419 18.6501 9.87936 18.2668 9.2377 17.7001C8.59603 17.1335 8.1252 16.3335 7.8252 15.3001L9.6752 14.5501C9.9252 15.3501 10.296 15.9585 10.7877 16.3751C11.2794 16.7918 11.9252 17.0001 12.7252 17.0001C13.4085 17.0001 13.9877 16.846 14.4627 16.5376C14.9377 16.2293 15.1752 15.7501 15.1752 15.1001C15.1752 14.5168 14.9919 14.0543 14.6252 13.7126C14.2585 13.371 13.4085 12.9835 12.0752 12.5501C10.6419 12.1001 9.65853 11.5626 9.1252 10.9376C8.59186 10.3126 8.3252 9.55012 8.3252 8.65012C8.3252 7.56679 8.6752 6.72512 9.3752 6.12512C10.0752 5.52512 10.7919 5.18346 11.5252 5.10012V3.00012H13.5252V5.10012C14.3585 5.23346 15.046 5.53762 15.5877 6.01262C16.1294 6.48762 16.5252 7.06679 16.7752 7.75012L14.9252 8.55012C14.7252 8.01679 14.4419 7.61679 14.0752 7.35012C13.7085 7.08346 13.2085 6.95012 12.5752 6.95012C11.8419 6.95012 11.2835 7.11262 10.9002 7.43762C10.5169 7.76262 10.3252 8.16679 10.3252 8.65012C10.3252 9.20012 10.5752 9.63346 11.0752 9.95012C11.5752 10.2668 12.4419 10.6001 13.6752 10.9501C14.8252 11.2835 15.696 11.8126 16.2877 12.5376C16.8794 13.2626 17.1752 14.1001 17.1752 15.0501C17.1752 16.2335 16.8252 17.1335 16.1252 17.7501C15.4252 18.3668 14.5585 18.7501 13.5252 18.9001V21.0001H11.5252Z" fill="#1C1B1F"/>
</g>
</svg>
