<svg width="20" height="20" viewBox="0 0 20 20" fill="none" xmlns="http://www.w3.org/2000/svg">
<mask id="mask0_998_1355" style="mask-type:alpha" maskUnits="userSpaceOnUse" x="0" y="0" width="20" height="20">
<rect width="20" height="20" fill="#D9D9D9"/>
</mask>
<g mask="url(#mask0_998_1355)">
<path d="M9.99984 18.3333L2.49984 10.9166L6.6665 5.83329H13.3332L17.4998 10.9166L9.99984 18.3333ZM3.81234 5.83329L2.0415 4.06246L3.229 2.89579L4.99984 4.66663L3.81234 5.83329ZM9.1665 4.16663V1.66663H10.8332V4.16663H9.1665ZM16.1457 5.83329L14.9582 4.64579L16.729 2.87496L17.9165 4.06246L16.1457 5.83329ZM9.99984 16L14.3748 11.6666H5.62484L9.99984 16ZM7.45817 7.49996L5.39567 9.99996H14.604L12.5415 7.49996H7.45817Z" fill="#D33841"/>
</g>
</svg>
