<svg width="25" height="24" viewBox="0 0 25 24" fill="none" xmlns="http://www.w3.org/2000/svg">
<path d="M8.3 2.00012H16.7C19.9 2.00012 22.5 4.60012 22.5 7.80012V16.2001C22.5 17.7384 21.8889 19.2136 20.8012 20.3013C19.7135 21.3891 18.2383 22.0001 16.7 22.0001H8.3C5.1 22.0001 2.5 19.4001 2.5 16.2001V7.80012C2.5 6.26187 3.11107 4.78661 4.19878 3.6989C5.28649 2.61119 6.76174 2.00012 8.3 2.00012ZM8.1 4.00012C7.14522 4.00012 6.22955 4.37941 5.55442 5.05454C4.87928 5.72967 4.5 6.64534 4.5 7.60012V16.4001C4.5 18.3901 6.11 20.0001 8.1 20.0001H16.9C17.8548 20.0001 18.7705 19.6208 19.4456 18.9457C20.1207 18.2706 20.5 17.3549 20.5 16.4001V7.60012C20.5 5.61012 18.89 4.00012 16.9 4.00012H8.1ZM17.75 5.50012C18.0815 5.50012 18.3995 5.63182 18.6339 5.86624C18.8683 6.10066 19 6.4186 19 6.75012C19 7.08164 18.8683 7.39959 18.6339 7.63401C18.3995 7.86843 18.0815 8.00012 17.75 8.00012C17.4185 8.00012 17.1005 7.86843 16.8661 7.63401C16.6317 7.39959 16.5 7.08164 16.5 6.75012C16.5 6.4186 16.6317 6.10066 16.8661 5.86624C17.1005 5.63182 17.4185 5.50012 17.75 5.50012ZM12.5 7.00012C13.8261 7.00012 15.0979 7.52691 16.0355 8.46459C16.9732 9.40227 17.5 10.674 17.5 12.0001C17.5 13.3262 16.9732 14.598 16.0355 15.5357C15.0979 16.4733 13.8261 17.0001 12.5 17.0001C11.1739 17.0001 9.90215 16.4733 8.96447 15.5357C8.02678 14.598 7.5 13.3262 7.5 12.0001C7.5 10.674 8.02678 9.40227 8.96447 8.46459C9.90215 7.52691 11.1739 7.00012 12.5 7.00012ZM12.5 9.00012C11.7044 9.00012 10.9413 9.31619 10.3787 9.8788C9.81607 10.4414 9.5 11.2045 9.5 12.0001C9.5 12.7958 9.81607 13.5588 10.3787 14.1214C10.9413 14.6841 11.7044 15.0001 12.5 15.0001C13.2956 15.0001 14.0587 14.6841 14.6213 14.1214C15.1839 13.5588 15.5 12.7958 15.5 12.0001C15.5 11.2045 15.1839 10.4414 14.6213 9.8788C14.0587 9.31619 13.2956 9.00012 12.5 9.00012Z" fill="#454545"/>
</svg>
