<svg width="25" height="24" viewBox="0 0 25 24" fill="none" xmlns="http://www.w3.org/2000/svg">
<path d="M13.0998 12.0002L9.1998 8.10017C9.01647 7.91684 8.9248 7.6835 8.9248 7.40017C8.9248 7.11684 9.01647 6.8835 9.1998 6.70017C9.38314 6.51684 9.61647 6.42517 9.8998 6.42517C10.1831 6.42517 10.4165 6.51684 10.5998 6.70017L15.1998 11.3002C15.2998 11.4002 15.3706 11.5085 15.4123 11.6252C15.454 11.7418 15.4748 11.8668 15.4748 12.0002C15.4748 12.1335 15.454 12.2585 15.4123 12.3752C15.3706 12.4918 15.2998 12.6002 15.1998 12.7002L10.5998 17.3002C10.4165 17.4835 10.1831 17.5752 9.8998 17.5752C9.61647 17.5752 9.38314 17.4835 9.1998 17.3002C9.01647 17.1168 8.9248 16.8835 8.9248 16.6002C8.9248 16.3168 9.01647 16.0835 9.1998 15.9002L13.0998 12.0002Z" fill="#5F6368"/>
</svg>
