<svg width="25" height="24" viewBox="0 0 25 24" fill="none" xmlns="http://www.w3.org/2000/svg">
<path d="M7.5 8.50012H2.5V6.50012H7.5V8.50012ZM7.5 11.5001H2.5V13.5001H7.5V11.5001ZM21.09 18.5001L17.26 14.6701C16.46 15.1901 15.52 15.5001 14.5 15.5001C11.74 15.5001 9.5 13.2601 9.5 10.5001C9.5 7.74012 11.74 5.50012 14.5 5.50012C17.26 5.50012 19.5 7.74012 19.5 10.5001C19.5 11.5201 19.19 12.4601 18.67 13.2501L22.5 17.0901L21.09 18.5001ZM17.5 10.5001C17.5 8.85012 16.15 7.50012 14.5 7.50012C12.85 7.50012 11.5 8.85012 11.5 10.5001C11.5 12.1501 12.85 13.5001 14.5 13.5001C16.15 13.5001 17.5 12.1501 17.5 10.5001ZM2.5 18.5001H12.5V16.5001H2.5V18.5001Z" fill="black"/>
</svg>
