<svg width="25" height="24" viewBox="0 0 25 24" fill="none" xmlns="http://www.w3.org/2000/svg">
<path d="M9.5 12.0001C11.43 12.0001 13 10.4301 13 8.50012C13 6.57012 11.43 5.00012 9.5 5.00012C7.57 5.00012 6 6.57012 6 8.50012C6 10.4301 7.57 12.0001 9.5 12.0001ZM9.5 7.00012C10.33 7.00012 11 7.67012 11 8.50012C11 9.33012 10.33 10.0001 9.5 10.0001C8.67 10.0001 8 9.33012 8 8.50012C8 7.67012 8.67 7.00012 9.5 7.00012ZM9.55 17.0001H5.27C6.26 16.5001 7.97 16.0001 9.5 16.0001C9.61 16.0001 9.73 16.0101 9.84 16.0101C10.18 15.2801 10.77 14.6801 11.48 14.2001C10.75 14.0701 10.06 14.0001 9.5 14.0001C7.16 14.0001 2.5 15.1701 2.5 17.5001V19.0001H9.5V17.5001C9.5 17.3301 9.52 17.1601 9.55 17.0001ZM17 14.5001C15.16 14.5001 11.5 15.5101 11.5 17.5001V19.0001H22.5V17.5001C22.5 15.5101 18.84 14.5001 17 14.5001ZM18.21 12.6801C18.97 12.2501 19.5 11.4401 19.5 10.5001C19.5 9.12012 18.38 8.00012 17 8.00012C15.62 8.00012 14.5 9.12012 14.5 10.5001C14.5 11.4401 15.03 12.2501 15.79 12.6801C16.15 12.8801 16.56 13.0001 17 13.0001C17.44 13.0001 17.85 12.8801 18.21 12.6801Z" fill="black"/>
</svg>
