<svg width="25" height="24" viewBox="0 0 25 24" fill="none" xmlns="http://www.w3.org/2000/svg">
<mask id="mask0_310_5537" style="mask-type:alpha" maskUnits="userSpaceOnUse" x="0" y="0" width="25" height="25">
<rect x="0.5" y="0.00012207" width="24" height="24" fill="#D9D9D9"/>
</mask>
<g mask="url(#mask0_310_5537)">
<path d="M12.5 22.0001C11.1167 22.0001 9.81667 21.7376 8.6 21.2126C7.38333 20.6876 6.325 19.9751 5.425 19.0751C4.525 18.1751 3.8125 17.1168 3.2875 15.9001C2.7625 14.6835 2.5 13.3835 2.5 12.0001C2.5 10.6168 2.7625 9.31679 3.2875 8.10012C3.8125 6.88346 4.525 5.82512 5.425 4.92512C6.325 4.02512 7.38333 3.31262 8.6 2.78762C9.81667 2.26262 11.1167 2.00012 12.5 2.00012C13.8833 2.00012 15.1833 2.26262 16.4 2.78762C17.6167 3.31262 18.675 4.02512 19.575 4.92512C20.475 5.82512 21.1875 6.88346 21.7125 8.10012C22.2375 9.31679 22.5 10.6168 22.5 12.0001C22.5 13.3835 22.2375 14.6835 21.7125 15.9001C21.1875 17.1168 20.475 18.1751 19.575 19.0751C18.675 19.9751 17.6167 20.6876 16.4 21.2126C15.1833 21.7376 13.8833 22.0001 12.5 22.0001ZM12.5 20.0001C14.7333 20.0001 16.625 19.2251 18.175 17.6751C19.725 16.1251 20.5 14.2335 20.5 12.0001C20.5 9.76679 19.725 7.87512 18.175 6.32512C16.625 4.77512 14.7333 4.00012 12.5 4.00012C10.2667 4.00012 8.375 4.77512 6.825 6.32512C5.275 7.87512 4.5 9.76679 4.5 12.0001C4.5 14.2335 5.275 16.1251 6.825 17.6751C8.375 19.2251 10.2667 20.0001 12.5 20.0001ZM12.5 18.0001C10.8333 18.0001 9.41667 17.4168 8.25 16.2501C7.08333 15.0835 6.5 13.6668 6.5 12.0001C6.5 10.3335 7.08333 8.91679 8.25 7.75012C9.41667 6.58346 10.8333 6.00012 12.5 6.00012C14.1667 6.00012 15.5833 6.58346 16.75 7.75012C17.9167 8.91679 18.5 10.3335 18.5 12.0001C18.5 13.6668 17.9167 15.0835 16.75 16.2501C15.5833 17.4168 14.1667 18.0001 12.5 18.0001ZM12.5 16.0001C13.6 16.0001 14.5417 15.6085 15.325 14.8251C16.1083 14.0418 16.5 13.1001 16.5 12.0001C16.5 10.9001 16.1083 9.95846 15.325 9.17512C14.5417 8.39179 13.6 8.00012 12.5 8.00012C11.4 8.00012 10.4583 8.39179 9.675 9.17512C8.89167 9.95846 8.5 10.9001 8.5 12.0001C8.5 13.1001 8.89167 14.0418 9.675 14.8251C10.4583 15.6085 11.4 16.0001 12.5 16.0001ZM12.5 14.0001C11.95 14.0001 11.4792 13.8043 11.0875 13.4126C10.6958 13.021 10.5 12.5501 10.5 12.0001C10.5 11.4501 10.6958 10.9793 11.0875 10.5876C11.4792 10.196 11.95 10.0001 12.5 10.0001C13.05 10.0001 13.5208 10.196 13.9125 10.5876C14.3042 10.9793 14.5 11.4501 14.5 12.0001C14.5 12.5501 14.3042 13.021 13.9125 13.4126C13.5208 13.8043 13.05 14.0001 12.5 14.0001Z" fill="#1C1B1F"/>
</g>
</svg>
