<svg width="81" height="81" viewBox="0 0 81 81" fill="none" xmlns="http://www.w3.org/2000/svg">
<circle cx="56.1188" cy="52.9986" r="24.7194" fill="#FFF8E5"/>
<circle cx="17.0803" cy="17.2562" r="16.5803" fill="#F5F5F5"/>
<path d="M40.4634 17.979C40.0514 17.979 39.6394 18.185 39.2274 18.391L22.9538 27.4548C22.3358 27.8668 21.9238 28.4848 21.9238 29.3088V47.8483C21.9238 48.6723 22.3358 49.2903 22.9538 49.7023L39.2274 58.766C39.6394 58.972 40.0514 59.178 40.4634 59.178C40.8754 59.178 41.2874 58.972 41.6993 58.766L43.5533 57.736C42.9353 56.5001 42.7293 55.0581 42.5233 53.6161V39.8145L54.883 32.8107V40.6385C56.325 40.6385 57.7669 40.8445 59.0029 41.2565V29.3088C59.0029 28.4848 58.5909 27.8668 57.9729 27.4548L41.6993 18.391C41.2874 18.185 40.8754 17.979 40.4634 17.979ZM40.4634 22.5109L52.8231 29.3088L48.7032 31.5747L36.5495 24.5709L40.4634 22.5109ZM32.4296 26.8368L44.5833 34.0466L40.4634 36.3126L28.1037 29.3088L32.4296 26.8368ZM26.0437 32.8107L38.4034 39.8145V53.6161L26.0437 46.6123V32.8107ZM59.6209 46.4063L52.2051 53.8221L48.9092 50.5262L46.6432 52.9982L52.4111 59.178L62.2988 49.2903L59.6209 46.4063Z" fill="#FF7371"/>
</svg>
