<svg width="196" height="187" viewBox="0 0 196 187" fill="none" xmlns="http://www.w3.org/2000/svg">
<circle cx="135" cy="127" r="60" fill="#FFEBBF"/>
<circle cx="40.6218" cy="40.6218" r="40.6218" fill="#F5F5F5"/>
<path d="M47 54.5H80.785C82.7555 54.4998 84.7068 54.8878 86.5273 55.6419C88.3478 56.396 90.0018 57.5014 91.395 58.895L107 74.5M62 99.5H47M79.5 69.5L89.5 79.5C90.1566 80.1566 90.6775 80.9361 91.0328 81.794C91.3882 82.6519 91.5711 83.5714 91.5711 84.5C91.5711 85.4286 91.3882 86.3481 91.0328 87.206C90.6775 88.0639 90.1566 88.8434 89.5 89.5C88.8434 90.1566 88.0639 90.6775 87.206 91.0328C86.3481 91.3882 85.4286 91.5711 84.5 91.5711C83.5714 91.5711 82.6519 91.3882 81.794 91.0328C80.9361 90.6775 80.1566 90.1566 79.5 89.5L72 82C67.7 86.3 60.885 86.785 56.015 83.135L54.5 82" stroke="#FF7371" stroke-width="8" stroke-linecap="round" stroke-linejoin="round"/>
<path d="M62 87V109.5C62 118.93 62 123.64 64.93 126.57C67.86 129.5 72.57 129.5 82 129.5H127C136.43 129.5 141.14 129.5 144.07 126.57C147 123.64 147 118.93 147 109.5V94.5C147 85.07 147 80.36 144.07 77.43C141.14 74.5 136.43 74.5 127 74.5H84.5" stroke="#FF7371" stroke-width="8" stroke-linecap="round" stroke-linejoin="round"/>
<path d="M113.25 102C113.25 104.321 112.328 106.546 110.687 108.187C109.046 109.828 106.821 110.75 104.5 110.75C102.179 110.75 99.9538 109.828 98.3128 108.187C96.6719 106.546 95.75 104.321 95.75 102C95.75 99.6794 96.6719 97.4538 98.3128 95.8128C99.9538 94.1719 102.179 93.25 104.5 93.25C106.821 93.25 109.046 94.1719 110.687 95.8128C112.328 97.4538 113.25 99.6794 113.25 102Z" stroke="#FF7371" stroke-width="8" stroke-linecap="round" stroke-linejoin="round"/>
</svg>
