<svg width="196" height="187" viewBox="0 0 196 187" fill="none" xmlns="http://www.w3.org/2000/svg">
<circle cx="135" cy="127" r="60" fill="#FFEBBF"/>
<circle cx="40.6218" cy="40.6218" r="40.6218" fill="#F5F5F5"/>
<path d="M73 88H83V98H73V88ZM73 108H83V118H73V108ZM93 88H103V98H93V88ZM93 108H103V118H93V108ZM113 88H123V98H113V88ZM113 108H123V118H113V108Z" fill="#FF7371"/>
<path d="M63 143H133C138.515 143 143 138.515 143 133V63C143 57.485 138.515 53 133 53H123V43H113V53H83V43H73V53H63C57.485 53 53 57.485 53 63V133C53 138.515 57.485 143 63 143ZM133 73L133.005 133H63V73H133Z" fill="#FF7371"/>
</svg>
