<svg width="152" height="130" viewBox="0 0 152 130" fill="none" xmlns="http://www.w3.org/2000/svg">
<path d="M150.704 109.159C151.714 110.1 151.77 111.682 150.829 112.692L135.49 129.153C134.549 130.163 132.967 130.219 131.957 129.278C130.947 128.337 130.891 126.755 131.832 125.745L145.467 111.112L130.834 97.478C129.824 96.5368 129.768 94.9548 130.71 93.9447C131.651 92.9345 133.233 92.8787 134.243 93.82L150.704 109.159ZM55.7846 76.4461L57.3449 74.4928L55.7846 76.4461ZM149 110.988C149.088 113.486 149.087 113.486 149.086 113.486C149.085 113.486 149.084 113.486 149.082 113.486C149.079 113.486 149.076 113.487 149.072 113.487C149.063 113.487 149.052 113.487 149.038 113.488C149.009 113.489 148.969 113.49 148.918 113.491C148.816 113.493 148.668 113.496 148.476 113.498C148.092 113.501 147.533 113.502 146.811 113.489C145.367 113.464 143.27 113.386 140.618 113.178C135.316 112.762 127.79 111.824 118.834 109.738C100.925 105.568 77.2569 96.7977 54.2243 78.3994L55.7846 76.4461L57.3449 74.4928C79.6696 92.3255 102.609 100.826 119.968 104.869C128.647 106.89 135.92 107.794 141.009 108.193C143.553 108.393 145.549 108.466 146.899 108.49C147.574 108.502 148.087 108.501 148.427 108.498C148.597 108.496 148.723 108.494 148.804 108.492C148.845 108.491 148.875 108.49 148.892 108.49C148.901 108.49 148.908 108.489 148.911 108.489C148.912 108.489 148.913 108.489 148.913 108.489C148.914 108.489 148.913 108.489 148.913 108.489C148.913 108.489 148.912 108.489 149 110.988ZM55.7846 76.4461L54.2243 78.3994C36.1175 63.9358 22.735 44.7758 13.8999 29.3223C9.47414 21.5811 6.17003 14.7354 3.96991 9.81905C2.86952 7.36013 2.04439 5.38177 1.49239 4.01283C1.21637 3.32831 1.00858 2.79599 0.868759 2.43198C0.798843 2.24996 0.745911 2.11001 0.70993 2.01412C0.69194 1.96618 0.678192 1.92925 0.668671 1.90359C0.66391 1.89076 0.660217 1.88075 0.657578 1.87359C0.65625 1.87 0.655197 1.86713 0.654404 1.86498C0.654007 1.86391 0.65361 1.86282 0.653412 1.86228C0.653091 1.86139 0.652817 1.86066 3 1C5.34718 0.139336 5.34705 0.138969 5.34698 0.138794C5.34705 0.138969 5.34705 0.138969 5.34718 0.13932C5.34744 0.14003 5.34796 0.141457 5.34874 0.143585C5.35033 0.14785 5.35294 0.154945 5.35661 0.164848C5.36395 0.184654 5.3755 0.215675 5.39127 0.25766C5.42276 0.341621 5.47108 0.469437 5.53625 0.639091C5.6666 0.978409 5.8643 1.48505 6.12959 2.14298C6.66023 3.45896 7.46101 5.37953 8.53377 7.7767C10.6799 12.5725 13.9109 19.2676 18.2406 26.8407C26.9165 42.0159 39.9263 60.5789 57.3449 74.4928L55.7846 76.4461Z" fill="#DBDBDB"/>
</svg>
